<mxfile host="app.diagrams.net" modified="2021-12-08T17:54:35.375Z" agent="5.0 (Windows NT 10.0; Win64; x64) AppleWebKit/537.36 (KHTML, like Gecko) Chrome/96.0.4664.93 Safari/537.36" etag="d6BAao64CX4FGkwuKraS" version="15.8.7" type="github">
  <diagram id="NTWIOyT_rUz8CiTxVMiB" name="Page-1">
    <mxGraphModel dx="3243" dy="1797" grid="1" gridSize="10" guides="1" tooltips="1" connect="1" arrows="1" fold="1" page="1" pageScale="1" pageWidth="850" pageHeight="1100" math="0" shadow="0">
      <root>
        <mxCell id="0" />
        <mxCell id="1" parent="0" />
        <mxCell id="0iGkUHPOiRJMSO66AngQ-1" value="" style="rounded=0;whiteSpace=wrap;html=1;fontSize=14;" vertex="1" parent="1">
          <mxGeometry x="-980" y="-500" width="1830" height="1610" as="geometry" />
        </mxCell>
        <mxCell id="0iGkUHPOiRJMSO66AngQ-113" value="" style="rounded=0;whiteSpace=wrap;html=1;fillColor=#dae8fc;strokeColor=#6c8ebf;" vertex="1" parent="1">
          <mxGeometry x="195" y="-470" width="535" height="440" as="geometry" />
        </mxCell>
        <mxCell id="0iGkUHPOiRJMSO66AngQ-91" value="" style="rounded=0;whiteSpace=wrap;html=1;fillColor=#dae8fc;strokeColor=#6c8ebf;" vertex="1" parent="1">
          <mxGeometry x="-290.5" width="1020.5" height="450" as="geometry" />
        </mxCell>
        <mxCell id="0iGkUHPOiRJMSO66AngQ-18" value="" style="rounded=0;whiteSpace=wrap;html=1;fillColor=#dae8fc;strokeColor=#6c8ebf;" vertex="1" parent="1">
          <mxGeometry x="-781" y="630" width="731" height="340" as="geometry" />
        </mxCell>
        <mxCell id="0iGkUHPOiRJMSO66AngQ-19" value="Wheels and Turning" style="text;html=1;strokeColor=none;fillColor=none;align=center;verticalAlign=middle;whiteSpace=wrap;rounded=0;fontSize=27;" vertex="1" parent="1">
          <mxGeometry x="-760" y="660" width="300" height="60" as="geometry" />
        </mxCell>
        <mxCell id="0iGkUHPOiRJMSO66AngQ-20" value="ESC" style="rounded=0;whiteSpace=wrap;html=1;fontSize=18;fillColor=#FFFFFF;strokeColor=#d79b00;" vertex="1" parent="1">
          <mxGeometry x="-340" y="650" width="230" height="50" as="geometry" />
        </mxCell>
        <mxCell id="0iGkUHPOiRJMSO66AngQ-21" style="edgeStyle=orthogonalEdgeStyle;rounded=0;orthogonalLoop=1;jettySize=auto;html=1;" edge="1" parent="1" target="0iGkUHPOiRJMSO66AngQ-24">
          <mxGeometry relative="1" as="geometry">
            <Array as="points">
              <mxPoint x="-535" y="830" />
              <mxPoint x="-655" y="830" />
            </Array>
            <mxPoint x="-535" y="830" as="sourcePoint" />
          </mxGeometry>
        </mxCell>
        <mxCell id="0iGkUHPOiRJMSO66AngQ-22" style="edgeStyle=orthogonalEdgeStyle;rounded=0;orthogonalLoop=1;jettySize=auto;html=1;" edge="1" parent="1" target="0iGkUHPOiRJMSO66AngQ-30">
          <mxGeometry relative="1" as="geometry">
            <Array as="points">
              <mxPoint x="-535" y="830" />
              <mxPoint x="-175" y="830" />
            </Array>
            <mxPoint x="-535" y="830" as="sourcePoint" />
          </mxGeometry>
        </mxCell>
        <mxCell id="0iGkUHPOiRJMSO66AngQ-23" value="&lt;div&gt;Brushless DC&lt;/div&gt;" style="rounded=0;whiteSpace=wrap;html=1;fontSize=18;fillColor=#FFFFFF;strokeColor=#d79b00;" vertex="1" parent="1">
          <mxGeometry x="-340" y="730" width="230" height="50" as="geometry" />
        </mxCell>
        <mxCell id="0iGkUHPOiRJMSO66AngQ-24" value="Stepper Motor" style="rounded=0;whiteSpace=wrap;html=1;fontSize=18;fillColor=#FFFFFF;strokeColor=#d79b00;" vertex="1" parent="1">
          <mxGeometry x="-765" y="860" width="230" height="50" as="geometry" />
        </mxCell>
        <mxCell id="0iGkUHPOiRJMSO66AngQ-25" style="edgeStyle=orthogonalEdgeStyle;rounded=0;orthogonalLoop=1;jettySize=auto;html=1;entryX=0;entryY=0.5;entryDx=0;entryDy=0;" edge="1" parent="1" target="0iGkUHPOiRJMSO66AngQ-20">
          <mxGeometry relative="1" as="geometry">
            <mxPoint x="-370" y="675" as="sourcePoint" />
            <Array as="points">
              <mxPoint x="-360" y="675" />
            </Array>
          </mxGeometry>
        </mxCell>
        <mxCell id="0iGkUHPOiRJMSO66AngQ-26" style="edgeStyle=orthogonalEdgeStyle;rounded=0;orthogonalLoop=1;jettySize=auto;html=1;exitX=0.5;exitY=1;exitDx=0;exitDy=0;" edge="1" parent="1">
          <mxGeometry relative="1" as="geometry">
            <mxPoint x="-410" y="1030" as="sourcePoint" />
            <mxPoint x="-410" y="1030" as="targetPoint" />
          </mxGeometry>
        </mxCell>
        <mxCell id="0iGkUHPOiRJMSO66AngQ-27" value="" style="endArrow=classic;startArrow=classic;html=1;rounded=0;exitX=0.5;exitY=1;exitDx=0;exitDy=0;" edge="1" parent="1" source="0iGkUHPOiRJMSO66AngQ-20" target="0iGkUHPOiRJMSO66AngQ-23">
          <mxGeometry width="50" height="50" relative="1" as="geometry">
            <mxPoint x="-260" y="730" as="sourcePoint" />
            <mxPoint x="-200" y="820" as="targetPoint" />
          </mxGeometry>
        </mxCell>
        <mxCell id="0iGkUHPOiRJMSO66AngQ-28" style="edgeStyle=orthogonalEdgeStyle;rounded=0;orthogonalLoop=1;jettySize=auto;html=1;entryX=0.5;entryY=1;entryDx=0;entryDy=0;" edge="1" parent="1" source="0iGkUHPOiRJMSO66AngQ-29" target="0iGkUHPOiRJMSO66AngQ-35">
          <mxGeometry relative="1" as="geometry">
            <mxPoint x="-890" y="740" as="targetPoint" />
            <Array as="points">
              <mxPoint x="-420" y="830" />
              <mxPoint x="-565" y="830" />
            </Array>
          </mxGeometry>
        </mxCell>
        <mxCell id="0iGkUHPOiRJMSO66AngQ-29" value="Optical Sensor" style="rounded=0;whiteSpace=wrap;html=1;fontSize=18;fillColor=#FFFFFF;strokeColor=#d79b00;" vertex="1" parent="1">
          <mxGeometry x="-527" y="860" width="230" height="50" as="geometry" />
        </mxCell>
        <mxCell id="0iGkUHPOiRJMSO66AngQ-30" value="Solenoid" style="rounded=0;whiteSpace=wrap;html=1;fontSize=18;fillColor=#FFFFFF;strokeColor=#d79b00;" vertex="1" parent="1">
          <mxGeometry x="-290.5" y="860" width="230" height="50" as="geometry" />
        </mxCell>
        <mxCell id="0iGkUHPOiRJMSO66AngQ-32" value="" style="endArrow=classic;html=1;rounded=0;" edge="1" parent="1">
          <mxGeometry width="50" height="50" relative="1" as="geometry">
            <mxPoint x="-80" y="750" as="sourcePoint" />
            <mxPoint x="-178" y="910" as="targetPoint" />
            <Array as="points">
              <mxPoint x="-30" y="750" />
              <mxPoint x="-30" y="1000" />
              <mxPoint x="-178" y="1000" />
            </Array>
          </mxGeometry>
        </mxCell>
        <mxCell id="0iGkUHPOiRJMSO66AngQ-33" value="" style="endArrow=classic;html=1;rounded=0;entryX=0.5;entryY=1;entryDx=0;entryDy=0;" edge="1" parent="1" target="0iGkUHPOiRJMSO66AngQ-24">
          <mxGeometry width="50" height="50" relative="1" as="geometry">
            <mxPoint x="-180" y="1000" as="sourcePoint" />
            <mxPoint x="-300" y="770" as="targetPoint" />
            <Array as="points">
              <mxPoint x="-650" y="1000" />
            </Array>
          </mxGeometry>
        </mxCell>
        <mxCell id="0iGkUHPOiRJMSO66AngQ-145" style="edgeStyle=orthogonalEdgeStyle;rounded=0;orthogonalLoop=1;jettySize=auto;html=1;exitX=1;exitY=0.5;exitDx=0;exitDy=0;entryX=0;entryY=0.5;entryDx=0;entryDy=0;" edge="1" parent="1" source="0iGkUHPOiRJMSO66AngQ-35" target="0iGkUHPOiRJMSO66AngQ-94">
          <mxGeometry relative="1" as="geometry">
            <Array as="points">
              <mxPoint x="-370" y="765" />
              <mxPoint x="-370" y="175" />
            </Array>
          </mxGeometry>
        </mxCell>
        <mxCell id="0iGkUHPOiRJMSO66AngQ-35" value="Microcontroller" style="rounded=0;whiteSpace=wrap;html=1;fontSize=18;fillColor=#FFFFFF;strokeColor=#d79b00;" vertex="1" parent="1">
          <mxGeometry x="-680" y="740" width="230" height="50" as="geometry" />
        </mxCell>
        <mxCell id="0iGkUHPOiRJMSO66AngQ-52" value="" style="rounded=0;whiteSpace=wrap;html=1;fillColor=#dae8fc;strokeColor=#6c8ebf;" vertex="1" parent="1">
          <mxGeometry x="39" y="630" width="741" height="340" as="geometry" />
        </mxCell>
        <mxCell id="0iGkUHPOiRJMSO66AngQ-53" value="Human Machine Interface Layer" style="text;html=1;strokeColor=none;fillColor=none;align=center;verticalAlign=middle;whiteSpace=wrap;rounded=0;fontSize=27;" vertex="1" parent="1">
          <mxGeometry x="56" y="700" width="300" height="60" as="geometry" />
        </mxCell>
        <mxCell id="0iGkUHPOiRJMSO66AngQ-54" value="LED Strip" style="rounded=0;whiteSpace=wrap;html=1;fontSize=18;fillColor=#FFFFFF;strokeColor=#d79b00;" vertex="1" parent="1">
          <mxGeometry x="476" y="790" width="230" height="50" as="geometry" />
        </mxCell>
        <mxCell id="0iGkUHPOiRJMSO66AngQ-55" style="edgeStyle=orthogonalEdgeStyle;rounded=0;orthogonalLoop=1;jettySize=auto;html=1;exitX=0;exitY=0.25;exitDx=0;exitDy=0;" edge="1" parent="1" source="0iGkUHPOiRJMSO66AngQ-56">
          <mxGeometry relative="1" as="geometry">
            <mxPoint x="22" y="250" as="targetPoint" />
            <Array as="points">
              <mxPoint x="22" y="803" />
            </Array>
          </mxGeometry>
        </mxCell>
        <mxCell id="0iGkUHPOiRJMSO66AngQ-56" value="Weight Sensor" style="rounded=0;whiteSpace=wrap;html=1;fontSize=18;fillColor=#FFFFFF;strokeColor=#d79b00;" vertex="1" parent="1">
          <mxGeometry x="120" y="790" width="230" height="50" as="geometry" />
        </mxCell>
        <mxCell id="0iGkUHPOiRJMSO66AngQ-57" value="&lt;div&gt;Buzzer/Speaker&lt;/div&gt;" style="rounded=0;whiteSpace=wrap;html=1;fontSize=18;fillColor=#FFFFFF;strokeColor=#d79b00;" vertex="1" parent="1">
          <mxGeometry x="476" y="883" width="230" height="50" as="geometry" />
        </mxCell>
        <mxCell id="0iGkUHPOiRJMSO66AngQ-147" style="edgeStyle=orthogonalEdgeStyle;rounded=0;orthogonalLoop=1;jettySize=auto;html=1;exitX=0.5;exitY=1;exitDx=0;exitDy=0;entryX=1;entryY=0.5;entryDx=0;entryDy=0;fontSize=18;" edge="1" parent="1" source="0iGkUHPOiRJMSO66AngQ-59" target="0iGkUHPOiRJMSO66AngQ-120">
          <mxGeometry relative="1" as="geometry">
            <Array as="points">
              <mxPoint x="235" y="1030" />
              <mxPoint x="790" y="1030" />
              <mxPoint x="790" y="-372" />
            </Array>
          </mxGeometry>
        </mxCell>
        <mxCell id="0iGkUHPOiRJMSO66AngQ-59" value="Follow Anklet" style="rounded=0;whiteSpace=wrap;html=1;fontSize=18;fillColor=#FFFFFF;strokeColor=#d79b00;" vertex="1" parent="1">
          <mxGeometry x="120" y="883" width="230" height="50" as="geometry" />
        </mxCell>
        <mxCell id="0iGkUHPOiRJMSO66AngQ-61" style="edgeStyle=orthogonalEdgeStyle;rounded=0;orthogonalLoop=1;jettySize=auto;html=1;entryX=0;entryY=0.5;entryDx=0;entryDy=0;exitX=1.002;exitY=0.387;exitDx=0;exitDy=0;exitPerimeter=0;" edge="1" parent="1" target="0iGkUHPOiRJMSO66AngQ-57" source="0iGkUHPOiRJMSO66AngQ-94">
          <mxGeometry relative="1" as="geometry">
            <mxPoint x="456" y="630" as="sourcePoint" />
            <Array as="points">
              <mxPoint x="600" y="158" />
              <mxPoint x="600" y="530" />
              <mxPoint x="450" y="530" />
              <mxPoint x="450" y="908" />
            </Array>
          </mxGeometry>
        </mxCell>
        <mxCell id="0iGkUHPOiRJMSO66AngQ-62" style="edgeStyle=orthogonalEdgeStyle;rounded=0;orthogonalLoop=1;jettySize=auto;html=1;" edge="1" parent="1">
          <mxGeometry relative="1" as="geometry">
            <mxPoint x="-24" y="860" as="sourcePoint" />
            <mxPoint x="228" y="840" as="targetPoint" />
          </mxGeometry>
        </mxCell>
        <mxCell id="0iGkUHPOiRJMSO66AngQ-63" style="edgeStyle=orthogonalEdgeStyle;rounded=0;orthogonalLoop=1;jettySize=auto;html=1;entryX=0.5;entryY=1;entryDx=0;entryDy=0;" edge="1" parent="1" target="0iGkUHPOiRJMSO66AngQ-54">
          <mxGeometry relative="1" as="geometry">
            <mxPoint x="-24" y="860" as="sourcePoint" />
          </mxGeometry>
        </mxCell>
        <mxCell id="0iGkUHPOiRJMSO66AngQ-64" style="edgeStyle=orthogonalEdgeStyle;rounded=0;orthogonalLoop=1;jettySize=auto;html=1;" edge="1" parent="1" target="0iGkUHPOiRJMSO66AngQ-57">
          <mxGeometry relative="1" as="geometry">
            <mxPoint x="-30" y="860" as="sourcePoint" />
          </mxGeometry>
        </mxCell>
        <mxCell id="0iGkUHPOiRJMSO66AngQ-65" style="edgeStyle=orthogonalEdgeStyle;rounded=0;orthogonalLoop=1;jettySize=auto;html=1;exitX=0.5;exitY=1;exitDx=0;exitDy=0;" edge="1" parent="1">
          <mxGeometry relative="1" as="geometry">
            <mxPoint x="406" y="1050" as="sourcePoint" />
            <mxPoint x="406" y="1050" as="targetPoint" />
          </mxGeometry>
        </mxCell>
        <mxCell id="0iGkUHPOiRJMSO66AngQ-67" style="edgeStyle=orthogonalEdgeStyle;rounded=0;orthogonalLoop=1;jettySize=auto;html=1;entryX=0.5;entryY=0;entryDx=0;entryDy=0;fontSize=15;" edge="1" parent="1" source="0iGkUHPOiRJMSO66AngQ-68" target="0iGkUHPOiRJMSO66AngQ-70">
          <mxGeometry relative="1" as="geometry" />
        </mxCell>
        <mxCell id="0iGkUHPOiRJMSO66AngQ-68" value="" style="rounded=0;whiteSpace=wrap;html=1;" vertex="1" parent="1">
          <mxGeometry x="-797" y="40" width="120" height="60" as="geometry" />
        </mxCell>
        <mxCell id="0iGkUHPOiRJMSO66AngQ-69" style="edgeStyle=orthogonalEdgeStyle;rounded=0;orthogonalLoop=1;jettySize=auto;html=1;exitX=0.5;exitY=1;exitDx=0;exitDy=0;fontSize=15;" edge="1" parent="1" source="0iGkUHPOiRJMSO66AngQ-70">
          <mxGeometry relative="1" as="geometry">
            <mxPoint x="-737" y="310" as="targetPoint" />
          </mxGeometry>
        </mxCell>
        <mxCell id="0iGkUHPOiRJMSO66AngQ-70" value="&lt;font style=&quot;font-size: 15px&quot;&gt;Buck Converter&lt;/font&gt;" style="rounded=0;whiteSpace=wrap;html=1;" vertex="1" parent="1">
          <mxGeometry x="-797" y="150" width="120" height="60" as="geometry" />
        </mxCell>
        <mxCell id="0iGkUHPOiRJMSO66AngQ-72" value="Batteries" style="text;html=1;strokeColor=none;fillColor=none;align=center;verticalAlign=middle;whiteSpace=wrap;rounded=0;fontSize=15;" vertex="1" parent="1">
          <mxGeometry x="-767" y="55" width="60" height="30" as="geometry" />
        </mxCell>
        <mxCell id="0iGkUHPOiRJMSO66AngQ-73" value="Output" style="text;html=1;strokeColor=none;fillColor=none;align=center;verticalAlign=middle;whiteSpace=wrap;rounded=0;fontSize=15;" vertex="1" parent="1">
          <mxGeometry x="-767" y="320" width="60" height="30" as="geometry" />
        </mxCell>
        <mxCell id="0iGkUHPOiRJMSO66AngQ-75" value="" style="rounded=0;whiteSpace=wrap;html=1;fillColor=#dae8fc;strokeColor=#6c8ebf;" vertex="1" parent="1">
          <mxGeometry x="-960" y="20" width="540" height="330" as="geometry" />
        </mxCell>
        <mxCell id="0iGkUHPOiRJMSO66AngQ-76" value="Power Layer" style="text;html=1;strokeColor=none;fillColor=none;align=center;verticalAlign=middle;whiteSpace=wrap;rounded=0;fontSize=27;" vertex="1" parent="1">
          <mxGeometry x="-847" y="30" width="300" height="60" as="geometry" />
        </mxCell>
        <mxCell id="0iGkUHPOiRJMSO66AngQ-77" value="Battery" style="rounded=0;whiteSpace=wrap;html=1;fontSize=18;fillColor=#FFFFFF;strokeColor=#d6b656;" vertex="1" parent="1">
          <mxGeometry x="-775" y="100" width="150" height="50" as="geometry" />
        </mxCell>
        <mxCell id="0iGkUHPOiRJMSO66AngQ-78" value="" style="endArrow=classic;html=1;rounded=0;endSize=6;jumpSize=10;exitX=0.5;exitY=1;exitDx=0;exitDy=0;entryX=0.5;entryY=0;entryDx=0;entryDy=0;" edge="1" parent="1" source="0iGkUHPOiRJMSO66AngQ-79" target="0iGkUHPOiRJMSO66AngQ-20">
          <mxGeometry width="50" height="50" relative="1" as="geometry">
            <mxPoint x="-1052" y="260" as="sourcePoint" />
            <mxPoint x="-697" y="460" as="targetPoint" />
            <Array as="points">
              <mxPoint x="-701" y="500" />
              <mxPoint x="-225" y="500" />
            </Array>
          </mxGeometry>
        </mxCell>
        <mxCell id="0iGkUHPOiRJMSO66AngQ-79" value="&lt;span style=&quot;font-size: 14px&quot;&gt;Buck Converter&lt;br&gt;&lt;/span&gt;" style="rounded=0;whiteSpace=wrap;html=1;fontSize=18;fillColor=#FFFFFF;strokeColor=#d79b00;" vertex="1" parent="1">
          <mxGeometry x="-776" y="260" width="150" height="40" as="geometry" />
        </mxCell>
        <mxCell id="0iGkUHPOiRJMSO66AngQ-80" value="" style="endArrow=classic;startArrow=classic;html=1;rounded=0;endSize=6;jumpSize=10;exitX=0.5;exitY=0;exitDx=0;exitDy=0;entryX=0.5;entryY=1;entryDx=0;entryDy=0;" edge="1" parent="1" source="0iGkUHPOiRJMSO66AngQ-79" target="0iGkUHPOiRJMSO66AngQ-77">
          <mxGeometry width="50" height="50" relative="1" as="geometry">
            <mxPoint x="-712" y="280" as="sourcePoint" />
            <mxPoint x="-662" y="230" as="targetPoint" />
          </mxGeometry>
        </mxCell>
        <mxCell id="0iGkUHPOiRJMSO66AngQ-85" style="edgeStyle=orthogonalEdgeStyle;rounded=0;orthogonalLoop=1;jettySize=auto;html=1;exitX=0.5;exitY=0;exitDx=0;exitDy=0;entryX=0.5;entryY=1;entryDx=0;entryDy=0;" edge="1" parent="1">
          <mxGeometry relative="1" as="geometry">
            <mxPoint x="264" y="250" as="sourcePoint" />
            <mxPoint x="264" y="195" as="targetPoint" />
          </mxGeometry>
        </mxCell>
        <mxCell id="0iGkUHPOiRJMSO66AngQ-89" value="Controls Software (Jetson TX2)" style="text;html=1;strokeColor=none;fillColor=none;align=center;verticalAlign=middle;whiteSpace=wrap;rounded=0;" vertex="1" parent="1">
          <mxGeometry x="196.5" y="120" width="135" height="30" as="geometry" />
        </mxCell>
        <mxCell id="0iGkUHPOiRJMSO66AngQ-92" value="Main Controls Layer" style="text;html=1;strokeColor=none;fillColor=none;align=center;verticalAlign=middle;whiteSpace=wrap;rounded=0;fontSize=27;" vertex="1" parent="1">
          <mxGeometry x="114" y="20" width="300" height="60" as="geometry" />
        </mxCell>
        <mxCell id="0iGkUHPOiRJMSO66AngQ-94" value="&lt;font style=&quot;font-size: 18px&quot;&gt;Jetson TX2&lt;/font&gt;" style="rounded=0;whiteSpace=wrap;html=1;fontSize=18;fillColor=#FFFFFF;strokeColor=#d79b00;" vertex="1" parent="1">
          <mxGeometry x="-11" y="100" width="550" height="150" as="geometry" />
        </mxCell>
        <mxCell id="0iGkUHPOiRJMSO66AngQ-96" value="" style="edgeStyle=orthogonalEdgeStyle;rounded=0;orthogonalLoop=1;jettySize=auto;html=1;" edge="1" parent="1" source="0iGkUHPOiRJMSO66AngQ-98" target="0iGkUHPOiRJMSO66AngQ-94">
          <mxGeometry relative="1" as="geometry">
            <Array as="points">
              <mxPoint x="322" y="260" />
              <mxPoint x="322" y="260" />
            </Array>
          </mxGeometry>
        </mxCell>
        <mxCell id="0iGkUHPOiRJMSO66AngQ-98" value="&lt;font style=&quot;font-size: 18px&quot;&gt;Real-time Database&lt;/font&gt;" style="rounded=0;whiteSpace=wrap;html=1;fontSize=18;fillColor=#FFFFFF;strokeColor=#d79b00;" vertex="1" parent="1">
          <mxGeometry x="40" y="320" width="550" height="50" as="geometry" />
        </mxCell>
        <mxCell id="0iGkUHPOiRJMSO66AngQ-103" style="edgeStyle=orthogonalEdgeStyle;rounded=0;orthogonalLoop=1;jettySize=auto;html=1;exitX=0.5;exitY=1;exitDx=0;exitDy=0;entryX=0.5;entryY=0;entryDx=0;entryDy=0;fontSize=14;" edge="1" parent="1">
          <mxGeometry relative="1" as="geometry">
            <mxPoint x="-10.5" y="-305" as="sourcePoint" />
            <mxPoint x="-190" y="-235" as="targetPoint" />
          </mxGeometry>
        </mxCell>
        <mxCell id="0iGkUHPOiRJMSO66AngQ-108" value="" style="endArrow=classic;html=1;rounded=0;endSize=6;jumpSize=10;exitX=0.5;exitY=1;exitDx=0;exitDy=0;entryX=0.5;entryY=0;entryDx=0;entryDy=0;" edge="1" parent="1">
          <mxGeometry width="50" height="50" relative="1" as="geometry">
            <mxPoint x="-10.5" y="-305" as="sourcePoint" />
            <mxPoint x="-10.5" y="-235" as="targetPoint" />
          </mxGeometry>
        </mxCell>
        <mxCell id="0iGkUHPOiRJMSO66AngQ-114" value="Computer Vision Layer" style="text;html=1;strokeColor=none;fillColor=none;align=center;verticalAlign=middle;whiteSpace=wrap;rounded=0;fontSize=27;" vertex="1" parent="1">
          <mxGeometry x="315" y="-460" width="300" height="60" as="geometry" />
        </mxCell>
        <mxCell id="0iGkUHPOiRJMSO66AngQ-115" value="RGB Imagery Subsystem" style="rounded=0;whiteSpace=wrap;html=1;fontSize=18;fillColor=#FFFFFF;strokeColor=#d6b656;" vertex="1" parent="1">
          <mxGeometry x="340" y="-320" width="250" height="50" as="geometry" />
        </mxCell>
        <mxCell id="0iGkUHPOiRJMSO66AngQ-151" style="edgeStyle=orthogonalEdgeStyle;rounded=0;orthogonalLoop=1;jettySize=auto;html=1;exitX=0.5;exitY=1;exitDx=0;exitDy=0;fontSize=18;" edge="1" parent="1" source="0iGkUHPOiRJMSO66AngQ-116" target="0iGkUHPOiRJMSO66AngQ-94">
          <mxGeometry relative="1" as="geometry">
            <Array as="points">
              <mxPoint x="465" y="100" />
              <mxPoint x="465" y="100" />
            </Array>
          </mxGeometry>
        </mxCell>
        <mxCell id="0iGkUHPOiRJMSO66AngQ-116" value="Stereo and Infrared Imagery Subsystem" style="rounded=0;whiteSpace=wrap;html=1;fontSize=18;fillColor=#FFFFFF;strokeColor=#d79b00;" vertex="1" parent="1">
          <mxGeometry x="340" y="-130" width="250" height="50" as="geometry" />
        </mxCell>
        <mxCell id="0iGkUHPOiRJMSO66AngQ-117" style="edgeStyle=orthogonalEdgeStyle;rounded=0;orthogonalLoop=1;jettySize=auto;html=1;entryX=0.198;entryY=0.006;entryDx=0;entryDy=0;entryPerimeter=0;fontSize=14;" edge="1" parent="1" source="0iGkUHPOiRJMSO66AngQ-118" target="0iGkUHPOiRJMSO66AngQ-116">
          <mxGeometry relative="1" as="geometry" />
        </mxCell>
        <mxCell id="0iGkUHPOiRJMSO66AngQ-118" value="&lt;font style=&quot;font-size: 14px&quot;&gt;Output&lt;/font&gt;" style="rounded=0;whiteSpace=wrap;html=1;fontSize=18;fillColor=#FFFFFF;strokeColor=#d79b00;" vertex="1" parent="1">
          <mxGeometry x="340" y="-220" width="100" height="35" as="geometry" />
        </mxCell>
        <mxCell id="0iGkUHPOiRJMSO66AngQ-119" style="edgeStyle=orthogonalEdgeStyle;rounded=0;orthogonalLoop=1;jettySize=auto;html=1;exitX=0.5;exitY=1;exitDx=0;exitDy=0;entryX=0.5;entryY=0;entryDx=0;entryDy=0;fontSize=14;" edge="1" parent="1" source="0iGkUHPOiRJMSO66AngQ-120" target="0iGkUHPOiRJMSO66AngQ-115">
          <mxGeometry relative="1" as="geometry" />
        </mxCell>
        <mxCell id="0iGkUHPOiRJMSO66AngQ-120" value="&lt;span style=&quot;font-size: 14px&quot;&gt;Input&lt;br&gt;&lt;/span&gt;" style="rounded=0;whiteSpace=wrap;html=1;fontSize=18;fillColor=#FFFFFF;strokeColor=#d79b00;" vertex="1" parent="1">
          <mxGeometry x="415" y="-390" width="100" height="35" as="geometry" />
        </mxCell>
        <mxCell id="0iGkUHPOiRJMSO66AngQ-121" style="edgeStyle=orthogonalEdgeStyle;rounded=0;orthogonalLoop=1;jettySize=auto;html=1;entryX=0.798;entryY=0.017;entryDx=0;entryDy=0;entryPerimeter=0;fontSize=14;" edge="1" parent="1" source="0iGkUHPOiRJMSO66AngQ-122" target="0iGkUHPOiRJMSO66AngQ-116">
          <mxGeometry relative="1" as="geometry" />
        </mxCell>
        <mxCell id="0iGkUHPOiRJMSO66AngQ-122" value="&lt;span style=&quot;font-size: 14px&quot;&gt;Input&lt;br&gt;&lt;/span&gt;" style="rounded=0;whiteSpace=wrap;html=1;fontSize=18;fillColor=#FFFFFF;strokeColor=#d79b00;" vertex="1" parent="1">
          <mxGeometry x="490" y="-220" width="100" height="35" as="geometry" />
        </mxCell>
        <mxCell id="0iGkUHPOiRJMSO66AngQ-123" value="" style="endArrow=classic;html=1;rounded=0;fontSize=14;exitX=0.201;exitY=1.006;exitDx=0;exitDy=0;exitPerimeter=0;" edge="1" parent="1" source="0iGkUHPOiRJMSO66AngQ-115" target="0iGkUHPOiRJMSO66AngQ-118">
          <mxGeometry width="50" height="50" relative="1" as="geometry">
            <mxPoint x="440" y="-270" as="sourcePoint" />
            <mxPoint x="490" y="-320" as="targetPoint" />
          </mxGeometry>
        </mxCell>
        <mxCell id="0iGkUHPOiRJMSO66AngQ-129" value="" style="rounded=0;whiteSpace=wrap;html=1;fillColor=#dae8fc;strokeColor=#6c8ebf;" vertex="1" parent="1">
          <mxGeometry x="-450" y="-450" width="540" height="330" as="geometry" />
        </mxCell>
        <mxCell id="0iGkUHPOiRJMSO66AngQ-130" value="Remote Control" style="text;html=1;strokeColor=none;fillColor=none;align=center;verticalAlign=middle;whiteSpace=wrap;rounded=0;fontSize=27;" vertex="1" parent="1">
          <mxGeometry x="-337" y="-440" width="300" height="60" as="geometry" />
        </mxCell>
        <mxCell id="0iGkUHPOiRJMSO66AngQ-131" value="Front-end" style="rounded=0;whiteSpace=wrap;html=1;fontSize=18;fillColor=default;strokeColor=#d6b656;" vertex="1" parent="1">
          <mxGeometry x="-442" y="-290" width="120" height="50" as="geometry" />
        </mxCell>
        <mxCell id="0iGkUHPOiRJMSO66AngQ-132" style="edgeStyle=orthogonalEdgeStyle;rounded=0;orthogonalLoop=1;jettySize=auto;html=1;exitX=0.5;exitY=1;exitDx=0;exitDy=0;entryX=0.5;entryY=0;entryDx=0;entryDy=0;fontSize=14;" edge="1" parent="1" source="0iGkUHPOiRJMSO66AngQ-133" target="0iGkUHPOiRJMSO66AngQ-131">
          <mxGeometry relative="1" as="geometry" />
        </mxCell>
        <mxCell id="0iGkUHPOiRJMSO66AngQ-133" value="&lt;span style=&quot;font-size: 14px&quot;&gt;Input&lt;br&gt;&lt;/span&gt;" style="rounded=0;whiteSpace=wrap;html=1;fontSize=18;fillColor=#FFFFFF;strokeColor=#d79b00;" vertex="1" parent="1">
          <mxGeometry x="-237" y="-370" width="100" height="35" as="geometry" />
        </mxCell>
        <mxCell id="0iGkUHPOiRJMSO66AngQ-134" value="Authentification" style="rounded=0;whiteSpace=wrap;html=1;fontSize=18;fillColor=#FFFFFF;strokeColor=#d6b656;" vertex="1" parent="1">
          <mxGeometry x="-262" y="-290" width="150" height="50" as="geometry" />
        </mxCell>
        <mxCell id="0iGkUHPOiRJMSO66AngQ-135" value="Data Analysis" style="rounded=0;whiteSpace=wrap;html=1;fontSize=18;fillColor=#FFFFFF;strokeColor=#d6b656;" vertex="1" parent="1">
          <mxGeometry x="-52" y="-290" width="120" height="50" as="geometry" />
        </mxCell>
        <mxCell id="0iGkUHPOiRJMSO66AngQ-136" style="edgeStyle=orthogonalEdgeStyle;rounded=0;orthogonalLoop=1;jettySize=auto;html=1;entryX=0.5;entryY=0;entryDx=0;entryDy=0;fontSize=14;exitX=0.5;exitY=1;exitDx=0;exitDy=0;" edge="1" parent="1" source="0iGkUHPOiRJMSO66AngQ-133">
          <mxGeometry relative="1" as="geometry">
            <mxPoint x="-182" y="-310" as="sourcePoint" />
            <mxPoint x="8" y="-290" as="targetPoint" />
          </mxGeometry>
        </mxCell>
        <mxCell id="0iGkUHPOiRJMSO66AngQ-137" value="" style="endArrow=classic;html=1;rounded=0;endSize=6;jumpSize=10;exitX=0.5;exitY=1;exitDx=0;exitDy=0;entryX=0.5;entryY=0;entryDx=0;entryDy=0;" edge="1" parent="1" source="0iGkUHPOiRJMSO66AngQ-133" target="0iGkUHPOiRJMSO66AngQ-134">
          <mxGeometry width="50" height="50" relative="1" as="geometry">
            <mxPoint x="-192" y="-270" as="sourcePoint" />
            <mxPoint x="-142" y="-320" as="targetPoint" />
          </mxGeometry>
        </mxCell>
        <mxCell id="0iGkUHPOiRJMSO66AngQ-138" value="" style="endArrow=classic;startArrow=classic;html=1;rounded=0;endSize=6;jumpSize=10;entryX=0.5;entryY=1;entryDx=0;entryDy=0;exitX=0;exitY=0.5;exitDx=0;exitDy=0;" edge="1" parent="1" target="0iGkUHPOiRJMSO66AngQ-134" source="0iGkUHPOiRJMSO66AngQ-98">
          <mxGeometry width="50" height="50" relative="1" as="geometry">
            <mxPoint x="-187" as="sourcePoint" />
            <mxPoint x="-152" y="-240" as="targetPoint" />
            <Array as="points">
              <mxPoint x="-140" y="345" />
              <mxPoint x="-140" y="-70" />
              <mxPoint x="-187" y="-70" />
            </Array>
          </mxGeometry>
        </mxCell>
        <mxCell id="0iGkUHPOiRJMSO66AngQ-139" value="" style="endArrow=classic;startArrow=classic;html=1;rounded=0;entryX=0.5;entryY=1;entryDx=0;entryDy=0;exitX=0.5;exitY=1;exitDx=0;exitDy=0;" edge="1" parent="1" source="0iGkUHPOiRJMSO66AngQ-131" target="0iGkUHPOiRJMSO66AngQ-135">
          <mxGeometry width="50" height="50" relative="1" as="geometry">
            <mxPoint x="-212" y="-180" as="sourcePoint" />
            <mxPoint x="-162" y="-230" as="targetPoint" />
            <Array as="points">
              <mxPoint x="-382" y="-180" />
              <mxPoint x="8" y="-180" />
            </Array>
          </mxGeometry>
        </mxCell>
        <mxCell id="0iGkUHPOiRJMSO66AngQ-140" value="" style="endArrow=classic;html=1;rounded=0;entryX=1;entryY=0.5;entryDx=0;entryDy=0;" edge="1" parent="1" target="0iGkUHPOiRJMSO66AngQ-23">
          <mxGeometry width="50" height="50" relative="1" as="geometry">
            <mxPoint x="-280" y="500" as="sourcePoint" />
            <mxPoint x="-100" y="650" as="targetPoint" />
            <Array as="points">
              <mxPoint x="-80" y="500" />
              <mxPoint x="-80" y="755" />
            </Array>
          </mxGeometry>
        </mxCell>
        <mxCell id="0iGkUHPOiRJMSO66AngQ-141" value="" style="endArrow=classic;html=1;rounded=0;entryX=0;entryY=0.5;entryDx=0;entryDy=0;" edge="1" parent="1" target="0iGkUHPOiRJMSO66AngQ-35">
          <mxGeometry width="50" height="50" relative="1" as="geometry">
            <mxPoint x="-650" y="500" as="sourcePoint" />
            <mxPoint x="-100" y="650" as="targetPoint" />
            <Array as="points">
              <mxPoint x="-760" y="500" />
              <mxPoint x="-760" y="765" />
            </Array>
          </mxGeometry>
        </mxCell>
        <mxCell id="0iGkUHPOiRJMSO66AngQ-146" value="" style="endArrow=classic;html=1;rounded=0;fontSize=18;entryX=0;entryY=0.75;entryDx=0;entryDy=0;" edge="1" parent="1" target="0iGkUHPOiRJMSO66AngQ-94">
          <mxGeometry width="50" height="50" relative="1" as="geometry">
            <mxPoint x="-700" y="430" as="sourcePoint" />
            <mxPoint x="-90" y="100" as="targetPoint" />
            <Array as="points">
              <mxPoint x="-200" y="430" />
              <mxPoint x="-200" y="213" />
            </Array>
          </mxGeometry>
        </mxCell>
        <mxCell id="0iGkUHPOiRJMSO66AngQ-148" value="" style="endArrow=classic;html=1;rounded=0;fontSize=18;entryX=1;entryY=0.5;entryDx=0;entryDy=0;" edge="1" parent="1" target="0iGkUHPOiRJMSO66AngQ-122">
          <mxGeometry width="50" height="50" relative="1" as="geometry">
            <mxPoint x="790" y="-202" as="sourcePoint" />
            <mxPoint x="370" y="-120" as="targetPoint" />
          </mxGeometry>
        </mxCell>
        <mxCell id="0iGkUHPOiRJMSO66AngQ-149" value="" style="endArrow=classic;html=1;rounded=0;fontSize=18;entryX=0;entryY=0.5;entryDx=0;entryDy=0;" edge="1" parent="1" target="0iGkUHPOiRJMSO66AngQ-54">
          <mxGeometry width="50" height="50" relative="1" as="geometry">
            <mxPoint x="450" y="815" as="sourcePoint" />
            <mxPoint x="380" y="790" as="targetPoint" />
          </mxGeometry>
        </mxCell>
        <mxCell id="0iGkUHPOiRJMSO66AngQ-152" value="&lt;font style=&quot;font-size: 14px&quot;&gt;1&lt;/font&gt;" style="text;html=1;align=center;verticalAlign=middle;resizable=0;points=[];autosize=1;strokeColor=none;fillColor=none;fontSize=18;" vertex="1" parent="1">
          <mxGeometry x="-305" y="-340" width="20" height="30" as="geometry" />
        </mxCell>
        <mxCell id="0iGkUHPOiRJMSO66AngQ-154" value="&lt;font style=&quot;font-size: 14px&quot;&gt;2&lt;/font&gt;" style="text;html=1;align=center;verticalAlign=middle;resizable=0;points=[];autosize=1;strokeColor=none;fillColor=none;fontSize=18;" vertex="1" parent="1">
          <mxGeometry x="-185.5" y="-315" width="20" height="30" as="geometry" />
        </mxCell>
        <mxCell id="0iGkUHPOiRJMSO66AngQ-155" value="&lt;font style=&quot;font-size: 14px&quot;&gt;3&lt;/font&gt;" style="text;html=1;align=center;verticalAlign=middle;resizable=0;points=[];autosize=1;strokeColor=none;fillColor=none;fontSize=18;" vertex="1" parent="1">
          <mxGeometry x="-90" y="-340" width="20" height="30" as="geometry" />
        </mxCell>
        <mxCell id="0iGkUHPOiRJMSO66AngQ-156" value="&lt;font style=&quot;font-size: 14px&quot;&gt;4&lt;/font&gt;" style="text;html=1;align=center;verticalAlign=middle;resizable=0;points=[];autosize=1;strokeColor=none;fillColor=none;fontSize=18;" vertex="1" parent="1">
          <mxGeometry x="443" y="-355" width="20" height="30" as="geometry" />
        </mxCell>
        <mxCell id="0iGkUHPOiRJMSO66AngQ-157" value="&lt;font style=&quot;font-size: 14px&quot;&gt;5&lt;/font&gt;" style="text;html=1;align=center;verticalAlign=middle;resizable=0;points=[];autosize=1;strokeColor=none;fillColor=none;fontSize=18;" vertex="1" parent="1">
          <mxGeometry x="360" y="-170" width="20" height="30" as="geometry" />
        </mxCell>
        <mxCell id="0iGkUHPOiRJMSO66AngQ-161" value="&lt;font style=&quot;font-size: 14px&quot;&gt;5&lt;/font&gt;" style="text;html=1;align=center;verticalAlign=middle;resizable=0;points=[];autosize=1;strokeColor=none;fillColor=none;fontSize=18;" vertex="1" parent="1">
          <mxGeometry x="515" y="-170" width="20" height="30" as="geometry" />
        </mxCell>
        <mxCell id="0iGkUHPOiRJMSO66AngQ-162" value="&lt;font style=&quot;font-size: 14px&quot;&gt;1&lt;/font&gt;" style="text;html=1;align=center;verticalAlign=middle;resizable=0;points=[];autosize=1;strokeColor=none;fillColor=none;fontSize=18;" vertex="1" parent="1">
          <mxGeometry x="-380" y="-230" width="20" height="30" as="geometry" />
        </mxCell>
        <mxCell id="0iGkUHPOiRJMSO66AngQ-163" value="&lt;font style=&quot;font-size: 14px&quot;&gt;2&lt;/font&gt;" style="text;html=1;align=center;verticalAlign=middle;resizable=0;points=[];autosize=1;strokeColor=none;fillColor=none;fontSize=18;" vertex="1" parent="1">
          <mxGeometry x="-190" y="-230" width="20" height="30" as="geometry" />
        </mxCell>
        <mxCell id="0iGkUHPOiRJMSO66AngQ-164" value="&lt;font style=&quot;font-size: 14px&quot;&gt;3&lt;/font&gt;" style="text;html=1;align=center;verticalAlign=middle;resizable=0;points=[];autosize=1;strokeColor=none;fillColor=none;fontSize=18;" vertex="1" parent="1">
          <mxGeometry x="10" y="-230" width="20" height="30" as="geometry" />
        </mxCell>
        <mxCell id="0iGkUHPOiRJMSO66AngQ-165" value="&lt;font style=&quot;font-size: 14px&quot;&gt;5&lt;/font&gt;" style="text;html=1;align=center;verticalAlign=middle;resizable=0;points=[];autosize=1;strokeColor=none;fillColor=none;fontSize=18;" vertex="1" parent="1">
          <mxGeometry x="470" y="-34" width="20" height="30" as="geometry" />
        </mxCell>
        <mxCell id="0iGkUHPOiRJMSO66AngQ-166" value="&lt;font style=&quot;font-size: 14px&quot;&gt;6&lt;/font&gt;" style="text;html=1;align=center;verticalAlign=middle;resizable=0;points=[];autosize=1;strokeColor=none;fillColor=none;fontSize=18;" vertex="1" parent="1">
          <mxGeometry x="-700" y="190" width="20" height="30" as="geometry" />
        </mxCell>
        <mxCell id="0iGkUHPOiRJMSO66AngQ-168" value="&lt;font style=&quot;font-size: 14px&quot;&gt;7&lt;/font&gt;" style="text;html=1;align=center;verticalAlign=middle;resizable=0;points=[];autosize=1;strokeColor=none;fillColor=none;fontSize=18;" vertex="1" parent="1">
          <mxGeometry x="-500" y="401" width="20" height="30" as="geometry" />
        </mxCell>
        <mxCell id="0iGkUHPOiRJMSO66AngQ-169" value="&lt;font style=&quot;font-size: 14px&quot;&gt;8&lt;/font&gt;" style="text;html=1;align=center;verticalAlign=middle;resizable=0;points=[];autosize=1;strokeColor=none;fillColor=none;fontSize=18;" vertex="1" parent="1">
          <mxGeometry x="-760" y="560" width="20" height="30" as="geometry" />
        </mxCell>
        <mxCell id="0iGkUHPOiRJMSO66AngQ-170" value="&lt;font style=&quot;font-size: 14px&quot;&gt;9&lt;/font&gt;" style="text;html=1;align=center;verticalAlign=middle;resizable=0;points=[];autosize=1;strokeColor=none;fillColor=none;fontSize=18;" vertex="1" parent="1">
          <mxGeometry x="-220" y="560" width="20" height="30" as="geometry" />
        </mxCell>
        <mxCell id="0iGkUHPOiRJMSO66AngQ-171" value="&lt;font style=&quot;font-size: 14px&quot;&gt;10&lt;/font&gt;" style="text;html=1;align=center;verticalAlign=middle;resizable=0;points=[];autosize=1;strokeColor=none;fillColor=none;fontSize=18;" vertex="1" parent="1">
          <mxGeometry x="-110" y="720" width="30" height="30" as="geometry" />
        </mxCell>
        <mxCell id="0iGkUHPOiRJMSO66AngQ-172" value="&lt;font style=&quot;font-size: 14px&quot;&gt;11&lt;br&gt;&lt;/font&gt;" style="text;html=1;align=center;verticalAlign=middle;resizable=0;points=[];autosize=1;strokeColor=none;fillColor=none;fontSize=18;" vertex="1" parent="1">
          <mxGeometry x="-175" y="940" width="30" height="30" as="geometry" />
        </mxCell>
        <mxCell id="0iGkUHPOiRJMSO66AngQ-173" value="&lt;font style=&quot;font-size: 14px&quot;&gt;12&lt;br&gt;&lt;/font&gt;" style="text;html=1;align=center;verticalAlign=middle;resizable=0;points=[];autosize=1;strokeColor=none;fillColor=none;fontSize=18;" vertex="1" parent="1">
          <mxGeometry x="-655" y="933" width="30" height="30" as="geometry" />
        </mxCell>
        <mxCell id="0iGkUHPOiRJMSO66AngQ-174" value="&lt;font style=&quot;font-size: 14px&quot;&gt;13&lt;br&gt;&lt;/font&gt;" style="text;html=1;align=center;verticalAlign=middle;resizable=0;points=[];autosize=1;strokeColor=none;fillColor=none;fontSize=18;" vertex="1" parent="1">
          <mxGeometry x="-370" y="650" width="30" height="30" as="geometry" />
        </mxCell>
        <mxCell id="0iGkUHPOiRJMSO66AngQ-175" value="&lt;font style=&quot;font-size: 14px&quot;&gt;14&lt;br&gt;&lt;/font&gt;" style="text;html=1;align=center;verticalAlign=middle;resizable=0;points=[];autosize=1;strokeColor=none;fillColor=none;fontSize=18;" vertex="1" parent="1">
          <mxGeometry x="-430.5" y="735" width="30" height="30" as="geometry" />
        </mxCell>
        <mxCell id="0iGkUHPOiRJMSO66AngQ-177" value="&lt;font style=&quot;font-size: 14px&quot;&gt;15&lt;br&gt;&lt;/font&gt;" style="text;html=1;align=center;verticalAlign=middle;resizable=0;points=[];autosize=1;strokeColor=none;fillColor=none;fontSize=18;" vertex="1" parent="1">
          <mxGeometry x="-680" y="830" width="30" height="30" as="geometry" />
        </mxCell>
        <mxCell id="0iGkUHPOiRJMSO66AngQ-178" value="&lt;font style=&quot;font-size: 14px&quot;&gt;16&lt;br&gt;&lt;/font&gt;" style="text;html=1;align=center;verticalAlign=middle;resizable=0;points=[];autosize=1;strokeColor=none;fillColor=none;fontSize=18;" vertex="1" parent="1">
          <mxGeometry x="-420" y="834" width="30" height="30" as="geometry" />
        </mxCell>
        <mxCell id="0iGkUHPOiRJMSO66AngQ-179" value="&lt;font style=&quot;font-size: 14px&quot;&gt;17&lt;br&gt;&lt;/font&gt;" style="text;html=1;align=center;verticalAlign=middle;resizable=0;points=[];autosize=1;strokeColor=none;fillColor=none;fontSize=18;" vertex="1" parent="1">
          <mxGeometry x="-175" y="830" width="30" height="30" as="geometry" />
        </mxCell>
        <mxCell id="0iGkUHPOiRJMSO66AngQ-180" value="&lt;font style=&quot;font-size: 14px&quot;&gt;18&lt;br&gt;&lt;/font&gt;" style="text;html=1;align=center;verticalAlign=middle;resizable=0;points=[];autosize=1;strokeColor=none;fillColor=none;fontSize=18;" vertex="1" parent="1">
          <mxGeometry x="188" y="835" width="30" height="30" as="geometry" />
        </mxCell>
        <mxCell id="0iGkUHPOiRJMSO66AngQ-183" value="&lt;font style=&quot;font-size: 14px&quot;&gt;19&lt;br&gt;&lt;/font&gt;" style="text;html=1;align=center;verticalAlign=middle;resizable=0;points=[];autosize=1;strokeColor=none;fillColor=none;fontSize=18;" vertex="1" parent="1">
          <mxGeometry x="590" y="835" width="30" height="30" as="geometry" />
        </mxCell>
        <mxCell id="0iGkUHPOiRJMSO66AngQ-184" value="&lt;font style=&quot;font-size: 14px&quot;&gt;20&lt;br&gt;&lt;/font&gt;" style="text;html=1;align=center;verticalAlign=middle;resizable=0;points=[];autosize=1;strokeColor=none;fillColor=none;fontSize=18;" vertex="1" parent="1">
          <mxGeometry x="590" y="860" width="30" height="30" as="geometry" />
        </mxCell>
        <mxCell id="0iGkUHPOiRJMSO66AngQ-185" value="&lt;font style=&quot;font-size: 14px&quot;&gt;21&lt;br&gt;&lt;/font&gt;" style="text;html=1;align=center;verticalAlign=middle;resizable=0;points=[];autosize=1;strokeColor=none;fillColor=none;fontSize=18;" vertex="1" parent="1">
          <mxGeometry x="-11" y="590" width="30" height="30" as="geometry" />
        </mxCell>
        <mxCell id="0iGkUHPOiRJMSO66AngQ-187" value="&lt;font style=&quot;font-size: 14px&quot;&gt;22&lt;span style=&quot;color: rgba(0 , 0 , 0 , 0) ; font-family: monospace ; font-size: 0px&quot;&gt;%3CmxGraphModel%3E%3Croot%3E%3CmxCell%20id%3D%220%22%2F%3E%3CmxCell%20id%3D%221%22%20parent%3D%220%22%2F%3E%3CmxCell%20id%3D%222%22%20value%3D%22%26lt%3Bfont%20style%3D%26quot%3Bfont-size%3A%2014px%26quot%3B%26gt%3B20%26lt%3Bbr%26gt%3B%26lt%3B%2Ffont%26gt%3B%22%20style%3D%22text%3Bhtml%3D1%3Balign%3Dcenter%3BverticalAlign%3Dmiddle%3Bresizable%3D0%3Bpoints%3D%5B%5D%3Bautosize%3D1%3BstrokeColor%3Dnone%3BfillColor%3Dnone%3BfontSize%3D18%3B%22%20vertex%3D%221%22%20parent%3D%221%22%3E%3CmxGeometry%20x%3D%22590%22%20y%3D%22860%22%20width%3D%2230%22%20height%3D%2230%22%20as%3D%22geometry%22%2F%3E%3C%2FmxCell%3E%3C%2Froot%3E%3C%2FmxGraphModel%3E&lt;/span&gt;&lt;br&gt;&lt;/font&gt;" style="text;html=1;align=center;verticalAlign=middle;resizable=0;points=[];autosize=1;strokeColor=none;fillColor=none;fontSize=18;" vertex="1" parent="1">
          <mxGeometry x="447.5" y="790" width="30" height="30" as="geometry" />
        </mxCell>
        <mxCell id="0iGkUHPOiRJMSO66AngQ-188" value="&lt;font style=&quot;font-size: 14px&quot;&gt;23&lt;br&gt;&lt;/font&gt;" style="text;html=1;align=center;verticalAlign=middle;resizable=0;points=[];autosize=1;strokeColor=none;fillColor=none;fontSize=18;" vertex="1" parent="1">
          <mxGeometry x="447.5" y="903" width="30" height="30" as="geometry" />
        </mxCell>
        <mxCell id="0iGkUHPOiRJMSO66AngQ-189" value="&lt;font style=&quot;font-size: 14px&quot;&gt;24&lt;br&gt;&lt;/font&gt;" style="text;html=1;align=center;verticalAlign=middle;resizable=0;points=[];autosize=1;strokeColor=none;fillColor=none;fontSize=18;" vertex="1" parent="1">
          <mxGeometry x="690" y="-230" width="30" height="30" as="geometry" />
        </mxCell>
        <mxCell id="0iGkUHPOiRJMSO66AngQ-191" value="&lt;font style=&quot;font-size: 14px&quot;&gt;25&lt;br&gt;&lt;/font&gt;" style="text;html=1;align=center;verticalAlign=middle;resizable=0;points=[];autosize=1;strokeColor=none;fillColor=none;fontSize=18;" vertex="1" parent="1">
          <mxGeometry x="680" y="-400" width="30" height="30" as="geometry" />
        </mxCell>
        <mxCell id="0iGkUHPOiRJMSO66AngQ-194" value="&lt;font style=&quot;font-size: 14px&quot;&gt;26&lt;br&gt;&lt;/font&gt;" style="text;html=1;align=center;verticalAlign=middle;resizable=0;points=[];autosize=1;strokeColor=none;fillColor=none;fontSize=18;" vertex="1" parent="1">
          <mxGeometry x="-220" y="700" width="30" height="30" as="geometry" />
        </mxCell>
        <mxCell id="0iGkUHPOiRJMSO66AngQ-195" value="&lt;font style=&quot;font-size: 14px&quot;&gt;27&lt;br&gt;&lt;/font&gt;" style="text;html=1;align=center;verticalAlign=middle;resizable=0;points=[];autosize=1;strokeColor=none;fillColor=none;fontSize=18;" vertex="1" parent="1">
          <mxGeometry x="-450" y="834" width="30" height="30" as="geometry" />
        </mxCell>
      </root>
    </mxGraphModel>
  </diagram>
</mxfile>
